<svg width="1545" height="69" fill="none" xmlns="http://www.w3.org/2000/svg"><path d="M684.02 63.666c2.05-1.367 4.784-1.367 6.492 0h-6.492zm-41.683-1.025c9.225-.683 17.767-4.1 27.675-1.025-7.517 3.075-18.45 1.367-27.675 1.025zm-33.484-.683c.342-.342.684-1.026 1.367-1.367 2.05.341 3.417.341 4.783.683 0 0 0 .342.342.342-2.392 0-4.442 1.025-6.492.342zm20.5-2.734c.684-.342 3.075-.342.684.683 0-.341-.684-.683-.684-.683zm51.251 3.075v.342h-5.467V62.3h5.467zm-261.035-3.075c2.05.342 5.125.342 7.858.342 0 .683.342 1.025.342 1.366 3.417-.341.683-1.366 4.783-2.05 1.367.684 2.734 1.025 4.784 1.709-3.075.683-.684 2.392-6.15 2.392.683-.684 1.366-1.025 1.708-1.367-10.25-1.025-19.817-1.709-30.409-1.367v-.683c3.759 0 7.517-.342 10.934-.342v-1.367c2.05.684 5.467 0 6.15 1.367zm24.942 1.367h-5.809c.342-.684.684-1.025 1.025-1.709 1.367 1.025 2.734 1.367 4.784 1.709zm69.7-1.025c1.025 0 2.05.683 3.758 1.025-6.491 1.367-15.716-1.367-3.758-1.025zm31.434.341c-1.367.342-2.392.684-4.1 1.367-.342-1.367-.342-1.367 4.1-1.367zm-129.151 3.076c-1.708 0-3.075.342-5.125.342 2.392-1.026 2.392-1.026 5.125-.342zm-34.85 0h-1.367c-.342 0-.342-.342-.683-.342 1.025 0 1.366.342 2.05.342zm6.491-2.734c1.709.342 3.759.342 5.809.683-3.417.684-3.759.684-5.809-.683zm-.341 0c-3.759 2.05-15.375 2.734-19.134 0 5.125-1.708 14.009-2.05 19.134 0zm-211.835 2.392c-2.733.342-4.783 1.367-8.2.342-4.441-.342-9.908 2.05-14.008-.342-5.125-1.709-12.642.684-18.792-.683.342.341.683.683 1.025.683-4.442.342-8.542-.342-13.667-.683 1.025-.342 1.709-.684 2.734-1.026-4.442-.683-11.275 1.367-14.35-1.708 14.35-1.025 29.725-3.075 44.075-.342-.342 0-.342.342-.684.342 6.834 1.025 16.401-1.367 21.867 3.417zm-29.383.342v.342h-3.759v-.342h3.759zm-45.784-2.05c1.709.341 3.075.683 4.784 1.025-2.392 1.708-4.1-.342-5.809-.684.342 0 .684 0 1.025-.342zM88.15 61.957c1.025-.342 1.709-.684 2.734-1.367l6.15 2.05c-2.05.342-4.1.684-6.15.684l-2.734-1.367zM59.11 56.49c8.541-2.392 15.716-2.392 24.941-4.442 1.026 1.025 1.709 1.367 2.392 2.05-9.908 2.05-20.842 2.05-31.433 3.76.683-1.026 2.05-1.026 4.1-1.368zm-6.492-5.809c2.392-.341 4.783-.341 7.175-.683l.342.342c-2.05.683-4.442 1.025-7.517.341zm64.917-2.392c2.392.342 4.1.342 6.15.684l-1.367 1.367c-1.708-.342-2.391-.342-4.1-.342 0-.683-.341-1.025-.683-1.709zm1161.336-2.392c2.73-1.025 6.15-1.708 7.51-3.075 2.05-1.709 8.89-.342 11.62-1.709-.68-.341-1.37-.683-2.39-1.025 2.39 0 4.1-.341 6.15-.341-.34-1.367-3.76-.342-6.49-1.026.34-.683.68-1.708 1.02-2.733 6.15.342 11.28-1.367 17.08-.342-1.36.684-2.73 1.025-4.44 1.709 4.44 1.025 8.89-1.025 12.99.683-3.76 1.709-5.47 2.392-10.94 2.734 2.74.341 4.79.341 6.84.341 0 1.709-1.71 2.05-11.28 2.392 0 .342 0 .684-.34 1.026-1.37 0-3.08.341-4.44.341-.34.684-1.03 1.025-1.71 1.709-1.71-1.025-19.48 2.392-11.96-1.367-1.71-1.025-4.44-.342-6.15 1.025-1.02 0-2.73 0-5.47-.342 1.03.684 1.71.342 2.4 0zm-1149.719-4.1c3.416-.684 3.758 0 4.1.683-1.367 0-2.734-.341-4.1-.683zM108.31 40.43v-.342h4.1v.342h-4.1zm23.917-3.759c2.733-1.025 4.783-1.708 7.516-2.733 3.759 1.025 6.834.341 10.25-.342-3.075-.342-8.541.342-9.566-1.367 10.591-.683 14.35.342 11.616 3.075-7.516.342-12.3 2.392-19.816 1.367zM96.35 35.646s0-.342 0 0a4.74 4.74 0 013.076 0H96.35zm29.726-2.734c2.733-2.05 11.275-2.733 9.908.342-3.417 1.025-6.15 0-9.908-.342zm-.684-2.733c3.075-.342 3.417-1.025 5.125 0-1.708.683-2.733.341-5.125 0zm39.634 3.759c0 2.392-5.467.683-7.858 1.025l1.366-1.367c2.05 0 4.442.342 6.492.342zm1153.814.683c-2.73.342-5.81.683-8.54-.342 3.76-.341 6.15.342 8.54.342zm188.26 2.05c1.71-.341 3.07-.683 5.12-1.367-.68 1.367-2.39 1.709-5.12 1.367zm-176.64 3.417c-.34 0-.34 0 0 0-.34-.341-.34-.341-.34-.683h.68c-.34.342-.34.683-.34.683zm.68 4.1c-2.05-.34-4.1-1.024-6.15-1.366.34-1.709 8.88-1.367 6.15 1.367zm25.97 3.418c-.69-.342-3.76 0-2.39-.684 1.02 0 2.05.342 2.73.342 0 .342-.34.342-.34.342zm4.78-9.91c24.6 3.076 47.49 1.026 72.43 2.392-9.9 3.76-18.79 4.443-30.06 4.784-.34-.683-.34-1.367-.69-2.392-9.56 6.493-33.82-.341-41 4.1h37.25c-13.33 2.051-25.97 2.393-39.3 1.71-1.02-1.71-5.46-2.05-9.9-2.734-.35.683-.69 1.367-.69 2.05-2.05 0-3.76-.342-6.15-.342-2.73 4.1-14.35 1.709-18.79.684 3.08-2.05 3.08-2.05 16.4-2.05 1.03-1.71-4.1-1.71-7.86-2.393 5.81-1.025 8.2-1.366 10.94-5.467 2.05.342 10.93 1.025 3.07-1.025 4.44-1.025 10.25-.342 14.35.683zm81.66 4.1v.343h-3.76c1.03-.684 2.39-.684 3.76-.342zm-10.25 2.051h5.12c-2.05 1.025-3.41.684-5.12 0zm-111.04 3.759c.34 1.367.34 1.367-3.42 1.709 1.03-.684 2.05-1.026 3.42-1.71zm-6.15 0c2.39.342 2.73.683 2.73 1.367l-6.15-1.025s0-.342.34-.342h3.08zM138.034 52.048h-1.025c-1.708-1.025-3.417-1.708-5.125-2.392 1.708 0 3.758-.341 5.467-.341.341 1.025.683 1.708.683 2.733zm-9.225 1.025c-.683 1.367-1.367 1.709-7.175 1.367v-1.709c2.733.684 4.783 1.026 7.175.342zm-37.584 2.734c3.076-.342 4.442-1.709 9.226-1.709-2.392 1.367-5.467 1.709-9.225 1.709zm26.992 1.367c0 .342 0 .342 0 0-1.025.342-2.05.342-3.416.342v-.342h3.416zm37.242-33.146l.342.342a90.456 90.456 0 00-7.517 1.367c1.367-1.709 1.708-1.709 7.175-1.709zm51.592-5.809c3.075-2.734 8.542.342 12.3 0-1.367.683-2.733 1.367-4.442 2.05-3.075-.683-5.466-1.367-7.858-2.05zm-2.733 1.367s.341-.342.683-.342c1.025.342 2.05.342 2.733.683-.341 0-.341.342-.683.342-1.025-.341-2.05-.683-2.733-.683zm-7.517-.684c1.367 0 2.392 0 2.05-.683-.342-.683 3.758-1.367 6.492-1.367-3.417 1.709-5.125 2.734-9.567 2.392.683 0 1.025-.342 1.025-.342zm32.459-7.176c1.366.342 2.391.342 4.441.684-1.708.683-3.075 1.025-4.783 1.708-2.733-1.025-1.708-1.708.342-2.392zm10.591-.341c-1.366.341-2.733.341-4.441.683.683-.683.683-.683 4.441-.683zm13.325 0c-.341 0-1.025.341-1.708.341-1.025-.683 1.367-.683 1.708-.341zm435.628-3.076c3.416-.341 5.808 0 8.541.342-2.733 0-5.466.684-8.541-.342zm189.284-1.025c1.025-.683 2.05-.683 3.417 0-1.025.342-2.392.342-3.417 0zM866.471 6.26c-.683.342-1.708.684-3.075 1.025-.683-1.025-.341-1.367 3.075-1.025zm10.934.342c-2.734.342-4.442.342-5.809-.342 2.05-.342 3.759-.342 5.809.342zm9.908.342c-1.025.341-2.392.341-3.417.341v-.341h3.417zm-41-1.367c1.025-.342 1.708-.342 2.391.341-1.025 0-1.708 0-2.391-.341zM978.539 4.21c4.441-.683 11.275 1.025 15.033-.683 0 .341.342.683.342 1.366-5.809.684-11.275 0-18.109.342 1.709-.683 2.392-1.025 2.734-1.025zm60.821 1.708c1.02-1.366 4.78 0 4.78.342-1.37.684-4.44.342-4.78-.342zm320.82 4.784c1.03-.341 2.05-.683 3.76-1.025 1.37 1.367-2.05 1.709-3.76 1.025zm-12.3-.683c1.71-1.025 5.47-1.367 8.54-1.709-.68 2.05-2.05 2.392-8.54 1.709zm-5.46-1.025s0-.342 0 0c.68-.342 1.36-.342 2.05 0v.342c-.69-.342-1.37-.342-2.05-.342zm139.05 9.91c5.13-.342 14.01 1.366 2.4 2.391-1.37 1.709-1.37 1.709-6.15 1.709 1.02-1.367 2.39-2.734 3.75-4.1zm-10.59-1.026c4.1-.341 5.47.684 7.52 1.025-1.03.684-2.05 1.709-3.08 2.392-3.07-1.025-4.1-1.367-4.44-3.417zm11.96-1.025v-1.025h1.03c-.35.342-.35.683-.35 1.025h-.68zm-14.69-3.759c3.07 0 4.78.342 7.17.342 0 1.025-.34 2.05-3.75 3.075-1.03-1.025-2.05-2.05-3.42-3.417zm-79.95 37.588c-1.03 0-2.05.342-3.08.342l-.34-.342c1.03 0 2.05 0 3.08-.341l.34.341zm-31.78 1.025c-.34 0-.34.342-.68.342-.68-.342-1.71-.342-2.39-.683.34 0 .34-.342.68-.342.69 0 1.71.342 2.39.683zm-17.08.684c-2.73 0-5.47-.342-6.15-1.367 3.76.342 7.52.342 10.93.683-.34 1.025-2.73 1.025-4.78.684zm-320.48 14.693c50.9 2.392 101.47 2.05 151.7-4.442 8.88-5.809 29.72-5.467 41-4.784 9.22-8.543 30.75-2.733 39.63-7.86 5.47-.682 10.93-1.366 16.74-.34 0 1.024.69 1.708-1.36 2.391-1.37-.683-2.4-1.367-3.42-2.05-1.03.342-1.37.683-2.05 1.367-1.03-.684-1.37-1.025-2.74-1.367-3.07.683-6.14 1.708-8.88 2.392.34 0 .34.341.68.341 7.18-1.708 10.94 1.026 17.43.684.34-.342.68-.684 1.03-1.367 5.8.342 11.27 1.367 16.74-.683-4.44-.342-8.89-.684-13.67-1.367 0 0 0-.342.34-.342l19.48 1.025 1.02-1.025c1.37 2.392 8.54 2.392 11.96 3.075h.34c3.08.342 4.1-.683 6.15-1.366 3.76 0 4.44-.684 4.1-1.709 3.42 1.367 6.15 1.367 9.91 1.709-.34.683-.34 1.025-.68 1.366-1.37-.341-2.05-.341-3.08-.341 0 0-.34 0-.34.341 14.01 3.76 29.04.342 42.71.342 11.27-1.708 26.99 2.05 37.92-1.025-1.02-.683-5.46-.683-5.12-2.05 2.39 0 5.12-.342 7.17-.342 7.86 6.15 13.33-.342 21.53 0 7.86-.683 14.35-1.025 18.45-5.809 14.35-6.492 33.14-2.392 48.52-2.392 0-.342-.35-.683-.35-1.025 4.79-.342 9.57 1.025 13.67 0 .68-1.025.68-1.025 4.1-.683 10.59-1.026 25.97 3.075 34.85-2.734-5.12-.683-5.47-1.025-1.37-3.417-5.8 0-9.56 1.025-14.69 1.367.34.341.69.683 1.03 1.367-2.05 0-3.42.341-5.47.341v-2.05c15.03-.683 4.1-6.834-4.1-7.176-5.81-.683-6.15-1.025-3.42-3.075 5.81-6.493.69-7.176-5.46-5.126-10.59-2.392-11.96-7.518-23.92-9.568-12.3 4.442-28.36.684-40.32 4.1-1.36 3.418 8.55 6.151 11.62 7.177 3.76.341 3.76 1.025 3.76 1.708-6.15 1.025-11.96.342-18.11 0 .34-5.809.34-4.1-4.78-7.86-6.84-7.858-18.11-2.733-28.02-3.758.34.342.68 1.025 1.37 1.367 5.46-1.025 5.46 1.025 8.54 1.367-3.76 1.367-7.18-1.025-10.93 0 1.36 1.367 6.83 1.367 9.22 2.733-5.47 1.026-9.57 1.026-14.35 0-.68.684-1.37 1.367-1.71 1.709h-1.02c-.34-.342-1.03-.683-1.71-1.367-4.44 2.392-12.98.342-11.96-1.367-22.55-5.125-3.07-9.226-22.89-9.568 3.42-.341 6.49-.341 10.25-.683-1.03-1.367-2.05-2.392-3.08-3.759-6.15 2.05-4.78 4.784-11.95 3.759v1.367c-10.6-.342-18.8.683-28.7-.342-.69 2.05 5.12 2.05 7.17 2.734 7.86 5.809-16.4 1.708-19.47 1.025-.69.342-1.03.683-1.37 1.025-5.81-.342-11.28-.342-16.74-.683.34.341 1.02 1.025 1.71 1.708-23.92-2.05-45.1-3.759-68.68-4.1 1.71-.342 3.07-.342 5.81-.684-38.27.342-78.24-1.025-117.19-2.733 1.36-.684 2.39-1.025 3.75-1.709-3.41-.683-5.8 0-8.2.342 0 .683-.34 1.025-.34 1.367-12.98 0-25.62-.342-37.92-.342-22.89-2.734-49.2-.342-73.12-1.367-.34 1.367 1.37 1.367 4.78 1.367 5.47-1.367 12.99 1.708 19.14 0-.69 1.708-.69 1.708 1.71 3.075-13.33.342-26.65 0-39.98-.341 4.442-.342 6.15-.684 10.59-.342-3.07-2.05-4.781-2.734-9.565-3.417-15.375-1.025-31.092.683-46.125 0-25.967.683-53.642.683-79.609 0-25.625.342-53.642-6.834-77.9-.684 14.692-1.366 28.358 1.709 42.708 2.05-19.133.342-36.558.342-56.033.684 1.366.342 2.05.683 2.733.683 6.15.684 11.959 1.367 19.475 2.05-29.725 4.101-58.767-3.758-87.809-2.391 1.367.683 2.734 1.025 3.759 1.367-7.517-.342-19.134-4.443-24.6 0-1.367-1.026-2.734-1.709-4.442-2.734-1.367 0-2.733.342-3.758.342 10.933 7.175-14.692 3.075-18.109 3.417-33.142.341-67.308 2.392-100.792 0 2.733-2.05 8.542 1.367 10.933-1.025-6.833-2.392-14.691-1.026-22.55-1.026.342.342.684 1.026 1.367 1.367 6.15-.683 6.15-.683 7.175.684-11.617.683-22.208-1.367-33.484-1.025-4.441-2.734-10.591-1.709-17.425-2.734 2.392-.683 4.1-.683 5.809-1.025-4.1-.684-6.834 0-10.592.342.342 1.025.683 2.391 1.025 3.758-1.025 0-2.733.342-4.442.342-3.075-.342.342-1.367-1.708-2.05-6.15 3.759-11.617 2.05-18.45-.342.683 1.025 1.025 1.709 1.708 2.392-44.075-2.392-88.834 1.367-132.909-1.367 1.025.342 2.05.342 3.075.684-7.858-.342-15.033-1.026-23.575-1.026.342.684.683 1.026.683 1.026-30.75.341-60.817 6.834-89.517.341.342-1.025 4.1-1.708 2.05-3.075-14.691 9.226-31.775 7.176-48.175 9.91-4.1 1.366-11.958 1.366-15.033 3.758-1.025 2.05-6.834 3.076-12.984 2.05-4.441-.341-9.566-1.366-13.325.684 2.392-.342 3.417-.684 5.467-1.025.683 1.367 6.492.341 7.175 1.708-6.833 1.026-15.717 1.367-22.55 0 1.025-.341 1.708-.683 3.416-1.367-18.791-1.025-36.558 2.05-54.325 3.076-9.908-1.025-17.767.683-2.391 3.759-4.442.683-7.517 3.417-11.959 1.366-13.325 1.71-29.383 1.026-43.05 4.784-6.834 2.05-4.442 5.468-15.717 5.81 2.05.341 3.417.341 6.15.683-9.567 2.05-16.4 4.442-25.625 5.126 2.733 1.366 9.567 2.05 9.567 4.1-13.667 5.81 5.125 2.392 10.25 1.367A68.571 68.571 0 0116.4 52.39c6.15 3.759 68.676-13.669 57.059-4.784-8.884-1.709-17.767 1.367-26.65 3.075 1.708 2.05 3.416 2.05 6.15 2.734-2.734 1.709-21.184-2.05-13.326 2.734-7.175 1.708-17.083 1.367-23.233 3.758 5.809 1.709 11.959-1.025 18.108 0-3.416 2.05 0 2.392 7.176 2.734-2.734 1.025-6.492 2.05-3.759 3.759 18.792-.342 39.292.342 57.742-2.392 17.084 1.709 35.875-1.025 53.3.342.342-1.025.684-1.709 1.025-2.392h3.075c-.341.341-.341 1.025-.683 1.367 6.834 3.075 18.792-.684 25.284 2.733 1.025-1.025 1.708-2.05 2.733-3.417-.683-.342-1.367-.342-2.733-.683h17.425c-2.392 4.1 2.733 3.417 7.175 3.417-2.392-.684-2.734-1.709-1.025-2.734 25.283 4.442 52.958 4.784 78.583 3.759 6.834-2.05 13.326 2.392 19.817.342 17.084-3.76 32.8 1.366 50.909-4.1-6.834 4.441 19.475.682 23.233 2.391 3.075-2.392 11.275 1.367 11.959-2.734 1.708 0 3.758-.683 5.466.342-2.05.342-4.1.684-3.075 1.367 7.517 1.025 15.375.342 22.892-.342 6.15 1.709 8.884-2.392 15.375-.683-1.708.342-2.733.683-4.441 1.025 28.7-2.05 58.083 2.734 86.783 0 6.15-1.367 14.35-1.367 21.525-1.709 3.417 1.026 6.151 1.367 9.567 0 3.075.342 3.759-.341 5.125-1.025 6.834-2.392 6.834 1.709 14.35 1.367-1.366-2.392 5.809-1.709 8.884-2.734-1.709-1.366-1.709-1.366 3.758-1.708 4.442-.683 7.517-1.709 12.642-.683-1.025.341-2.392.341-4.1.683 3.758 1.025 9.908.342 11.958-1.367 3.075.342 2.734 1.025.684 1.709 5.125 0 9.225-.342 13.666-.342-.341 2.05-1.366 2.392-9.225 2.392l-1.025-1.025c-2.733 1.025-7.517-.342-9.225 1.025-5.125-1.709-7.858-1.025-11.958.341 25.625 2.734 53.642-.683 79.95 1.367-.342.684-.683 1.026-1.367 1.709 7.859.342 16.401-3.075 22.551-.683 4.441-1.026 9.225 0 14.35-1.026-1.025.684-1.367 1.367-2.05 1.709 3.758-.683 3.758-.683 10.591 0 4.442-2.05 10.592-.342 16.059 0-.342.342-.684.683-1.367.683 8.542 1.367 14.692-1.708 22.892-1.367 3.417 3.76 13.667 0 19.133 2.05l1.367-1.366c-3.075 0-5.125.342-7.517.342-.341 0-.341-.342-.683-.342 7.175-3.417 15.375 2.392 22.208-.342.684.342 1.367.684 2.392.684 31.434-3.076 64.575 3.758 96.009-1.025 49.2 4.1 99.426 2.05 148.972 3.758z" fill="#FC0"/></svg>