<svg width="1041" height="233" viewBox="0 0 1041 233" fill="none" xmlns="http://www.w3.org/2000/svg">
<path d="M0.940485 89.86L16.8125 1.924C16.8978 1.58266 17.1112 1.41199 17.4525 1.41199H36.0125C36.3538 1.41199 36.5672 1.58266 36.6525 1.924L51.8845 89.86C51.9698 90.2867 51.7992 90.5 51.3725 90.5H37.1645C36.8232 90.5 36.6098 90.2867 36.5245 89.86L35.1165 80.516H17.7085L16.3005 89.86C16.2152 90.2867 16.0018 90.5 15.6605 90.5H1.45249C1.11115 90.5 0.940485 90.2867 0.940485 89.86ZM20.2685 66.82H32.5565L27.3085 30.852L26.5405 26.116L26.0285 30.852L20.2685 66.82ZM113.831 91.78C109.223 91.78 105.042 90.628 101.287 88.324C97.5328 86.02 94.5035 82.948 92.1995 79.108C89.9808 75.1827 88.8715 70.8307 88.8715 66.052V25.476C88.8715 20.868 89.9808 16.644 92.1995 12.804C94.5035 8.87866 97.5328 5.76399 101.287 3.46C105.127 1.156 109.309 0.0039978 113.831 0.0039978C118.525 0.0039978 122.749 1.156 126.503 3.46C130.343 5.67866 133.373 8.708 135.591 12.548C137.81 16.388 138.919 20.6973 138.919 25.476V31.364C138.919 31.7053 138.706 31.876 138.279 31.876H123.943C123.602 31.876 123.431 31.7053 123.431 31.364V26.5C123.431 23.2573 122.493 20.5693 120.615 18.436C118.823 16.3027 116.562 15.236 113.831 15.236C111.357 15.236 109.138 16.26 107.175 18.308C105.298 20.356 104.359 22.7453 104.359 25.476V66.052C104.359 68.868 105.298 71.3 107.175 73.348C109.053 75.3107 111.271 76.292 113.831 76.292C116.562 76.292 118.823 75.3107 120.615 73.348C122.493 71.3853 123.431 68.9533 123.431 66.052V59.78H114.471C114.045 59.78 113.831 59.5667 113.831 59.14V44.804C113.831 44.3773 114.045 44.164 114.471 44.164H138.407C138.749 44.164 138.919 44.3773 138.919 44.804V66.052C138.919 70.8307 137.767 75.1827 135.463 79.108C133.245 82.948 130.258 86.02 126.503 88.324C122.749 90.628 118.525 91.78 113.831 91.78ZM146.55 89.86L162.422 1.924C162.508 1.58266 162.721 1.41199 163.062 1.41199H181.622C181.964 1.41199 182.177 1.58266 182.262 1.924L197.494 89.86C197.58 90.2867 197.409 90.5 196.982 90.5H182.774C182.433 90.5 182.22 90.2867 182.134 89.86L180.726 80.516H163.318L161.91 89.86C161.825 90.2867 161.612 90.5 161.27 90.5H147.062C146.721 90.5 146.55 90.2867 146.55 89.86ZM165.878 66.82H178.166L172.918 30.852L172.15 26.116L171.638 30.852L165.878 66.82ZM211.159 90.5C210.818 90.5 210.647 90.2867 210.647 89.86L210.903 1.924C210.903 1.58266 211.074 1.41199 211.415 1.41199H227.031C227.373 1.41199 227.671 1.58266 227.927 1.924L239.575 18.82L251.223 1.924C251.479 1.58266 251.778 1.41199 252.119 1.41199H267.863C268.205 1.41199 268.375 1.58266 268.375 1.924L268.631 89.86C268.631 90.2867 268.461 90.5 268.119 90.5H253.655C253.314 90.5 253.143 90.2867 253.143 89.86L253.015 24.58L239.575 44.036L226.263 24.58L226.135 89.86C226.135 90.2867 225.965 90.5 225.623 90.5H211.159ZM285.029 90.5C284.688 90.5 284.517 90.2867 284.517 89.86L284.645 1.924C284.645 1.58266 284.816 1.41199 285.157 1.41199H326.245C326.587 1.41199 326.757 1.62533 326.757 2.05199V16.388C326.757 16.7293 326.587 16.9 326.245 16.9H300.005V36.868H326.245C326.587 36.868 326.757 37.0387 326.757 37.38L326.885 51.844C326.885 52.1853 326.715 52.356 326.373 52.356H300.005V74.756H326.373C326.715 74.756 326.885 74.9693 326.885 75.396V89.988C326.885 90.3293 326.715 90.5 326.373 90.5H285.029ZM368.147 90.5C367.721 90.5 367.507 90.2867 367.507 89.86L367.763 1.924C367.763 1.58266 367.934 1.41199 368.275 1.41199H409.235C409.662 1.41199 409.875 1.58266 409.875 1.924V16.388C409.875 16.7293 409.705 16.9 409.363 16.9H383.123V36.74H409.363C409.705 36.74 409.875 36.9533 409.875 37.38L410.003 51.844C410.003 52.1853 409.79 52.356 409.363 52.356H383.123V89.86C383.123 90.2867 382.91 90.5 382.483 90.5H368.147ZM445.557 91.78C440.949 91.78 436.725 90.628 432.885 88.324C429.131 85.9347 426.101 82.82 423.797 78.98C421.493 75.0547 420.341 70.7453 420.341 66.052L420.469 25.476C420.469 20.7827 421.579 16.516 423.797 12.676C426.101 8.83599 429.173 5.76399 433.013 3.46C436.853 1.156 441.035 0.0039978 445.557 0.0039978C450.165 0.0039978 454.347 1.156 458.101 3.46C461.856 5.76399 464.843 8.83599 467.061 12.676C469.365 16.516 470.517 20.7827 470.517 25.476L470.645 66.052C470.645 70.7453 469.493 75.0547 467.189 78.98C464.971 82.82 461.941 85.9347 458.101 88.324C454.347 90.628 450.165 91.78 445.557 91.78ZM445.557 76.292C448.117 76.292 450.336 75.268 452.213 73.22C454.176 71.0867 455.157 68.6973 455.157 66.052L455.029 25.476C455.029 22.66 454.133 20.2707 452.341 18.308C450.549 16.3453 448.288 15.364 445.557 15.364C442.912 15.364 440.651 16.3453 438.773 18.308C436.896 20.1853 435.957 22.5747 435.957 25.476V66.052C435.957 68.868 436.896 71.3 438.773 73.348C440.651 75.3107 442.912 76.292 445.557 76.292ZM486.009 90.5C485.668 90.5 485.497 90.2867 485.497 89.86L485.753 1.924C485.753 1.58266 485.924 1.41199 486.265 1.41199H512.121C516.729 1.41199 520.953 2.564 524.793 4.868C528.719 7.08666 531.833 10.116 534.137 13.956C536.441 17.7107 537.593 21.9773 537.593 26.756C537.593 29.9133 537.124 32.772 536.185 35.332C535.247 37.8067 534.137 39.94 532.857 41.732C531.577 43.4387 530.425 44.7187 529.401 45.572C534.009 50.692 536.313 56.708 536.313 63.62L536.441 89.86C536.441 90.2867 536.228 90.5 535.801 90.5H521.337C520.996 90.5 520.825 90.372 520.825 90.116V63.62C520.825 60.548 519.716 57.9027 517.497 55.684C515.364 53.38 512.719 52.228 509.561 52.228H501.113L500.985 89.86C500.985 90.2867 500.815 90.5 500.473 90.5H486.009ZM501.113 36.868H512.121C514.767 36.868 517.113 35.8867 519.161 33.924C521.209 31.9613 522.233 29.572 522.233 26.756C522.233 24.0253 521.209 21.6787 519.161 19.716C517.199 17.7533 514.852 16.772 512.121 16.772H501.113V36.868ZM576.999 90.5C576.658 90.5 576.487 90.2867 576.487 89.86L576.615 1.924C576.615 1.58266 576.786 1.41199 577.127 1.41199H618.215C618.557 1.41199 618.727 1.62533 618.727 2.05199V16.388C618.727 16.7293 618.557 16.9 618.215 16.9H591.975V36.868H618.215C618.557 36.868 618.727 37.0387 618.727 37.38L618.855 51.844C618.855 52.1853 618.685 52.356 618.343 52.356H591.975V74.756H618.343C618.685 74.756 618.855 74.9693 618.855 75.396V89.988C618.855 90.3293 618.685 90.5 618.343 90.5H576.999ZM649.693 90.5C649.352 90.5 649.139 90.2867 649.053 89.86L631.389 1.924C631.304 1.58266 631.475 1.41199 631.901 1.41199H646.365C646.707 1.41199 646.92 1.58266 647.005 1.924L657.501 60.548L667.741 1.924C667.827 1.58266 668.04 1.41199 668.381 1.41199H682.717C683.144 1.41199 683.315 1.58266 683.229 1.924L665.821 89.86C665.736 90.2867 665.523 90.5 665.181 90.5H649.693ZM696.364 90.5C696.023 90.5 695.852 90.2867 695.852 89.86L695.98 1.924C695.98 1.58266 696.151 1.41199 696.492 1.41199H737.58C737.922 1.41199 738.092 1.62533 738.092 2.05199V16.388C738.092 16.7293 737.922 16.9 737.58 16.9H711.34V36.868H737.58C737.922 36.868 738.092 37.0387 738.092 37.38L738.22 51.844C738.22 52.1853 738.05 52.356 737.708 52.356H711.34V74.756H737.708C738.05 74.756 738.22 74.9693 738.22 75.396V89.988C738.22 90.3293 738.05 90.5 737.708 90.5H696.364ZM755.234 90.5C754.893 90.5 754.722 90.2867 754.722 89.86L754.978 1.924C754.978 1.58266 755.149 1.41199 755.49 1.41199H781.346C785.954 1.41199 790.178 2.564 794.018 4.868C797.944 7.08666 801.058 10.116 803.362 13.956C805.666 17.7107 806.818 21.9773 806.818 26.756C806.818 29.9133 806.349 32.772 805.41 35.332C804.472 37.8067 803.362 39.94 802.082 41.732C800.802 43.4387 799.65 44.7187 798.626 45.572C803.234 50.692 805.538 56.708 805.538 63.62L805.666 89.86C805.666 90.2867 805.453 90.5 805.026 90.5H790.562C790.221 90.5 790.05 90.372 790.05 90.116V63.62C790.05 60.548 788.941 57.9027 786.722 55.684C784.589 53.38 781.944 52.228 778.786 52.228H770.338L770.21 89.86C770.21 90.2867 770.04 90.5 769.698 90.5H755.234ZM770.338 36.868H781.346C783.992 36.868 786.338 35.8867 788.386 33.924C790.434 31.9613 791.458 29.572 791.458 26.756C791.458 24.0253 790.434 21.6787 788.386 19.716C786.424 17.7533 784.077 16.772 781.346 16.772H770.338V36.868ZM829.621 90.5C829.365 90.5 829.237 90.3293 829.237 89.988L829.365 53.636L812.213 1.924C812.128 1.58266 812.256 1.41199 812.597 1.41199H826.805C827.232 1.41199 827.488 1.58266 827.573 1.924L837.045 36.356L846.645 1.924C846.731 1.58266 846.944 1.41199 847.285 1.41199H861.621C861.963 1.41199 862.091 1.58266 862.005 1.924L844.725 53.124L844.853 89.988C844.853 90.3293 844.683 90.5 844.341 90.5H829.621ZM893.642 91.78C889.034 91.78 884.81 90.628 880.97 88.324C877.216 85.9347 874.186 82.82 871.882 78.98C869.578 75.0547 868.426 70.7453 868.426 66.052L868.554 25.476C868.554 20.7827 869.664 16.516 871.882 12.676C874.186 8.83599 877.258 5.76399 881.098 3.46C884.938 1.156 889.12 0.0039978 893.642 0.0039978C898.25 0.0039978 902.432 1.156 906.186 3.46C909.941 5.76399 912.928 8.83599 915.146 12.676C917.45 16.516 918.602 20.7827 918.602 25.476L918.73 66.052C918.73 70.7453 917.578 75.0547 915.274 78.98C913.056 82.82 910.026 85.9347 906.186 88.324C902.432 90.628 898.25 91.78 893.642 91.78ZM893.642 76.292C896.202 76.292 898.421 75.268 900.298 73.22C902.261 71.0867 903.242 68.6973 903.242 66.052L903.114 25.476C903.114 22.66 902.218 20.2707 900.426 18.308C898.634 16.3453 896.373 15.364 893.642 15.364C890.997 15.364 888.736 16.3453 886.858 18.308C884.981 20.1853 884.042 22.5747 884.042 25.476V66.052C884.042 68.868 884.981 71.3 886.858 73.348C888.736 75.3107 890.997 76.292 893.642 76.292ZM934.734 90.5C934.052 90.5 933.71 90.2013 933.71 89.604L933.582 2.436C933.582 1.75333 933.924 1.41199 934.606 1.41199H946.126L967.758 51.844L967.118 2.436C967.118 1.75333 967.502 1.41199 968.27 1.41199H980.942C981.454 1.41199 981.71 1.75333 981.71 2.436L981.838 89.732C981.838 90.244 981.625 90.5 981.198 90.5H969.934L947.79 43.396L948.686 89.476C948.686 90.1587 948.302 90.5 947.534 90.5H934.734ZM998.589 90.5C998.248 90.5 998.077 90.2867 998.077 89.86L998.205 1.924C998.205 1.58266 998.376 1.41199 998.717 1.41199H1039.81C1040.15 1.41199 1040.32 1.62533 1040.32 2.05199V16.388C1040.32 16.7293 1040.15 16.9 1039.81 16.9H1013.57V36.868H1039.81C1040.15 36.868 1040.32 37.0387 1040.32 37.38L1040.45 51.844C1040.45 52.1853 1040.27 52.356 1039.93 52.356H1013.57V74.756H1039.93C1040.27 74.756 1040.45 74.9693 1040.45 75.396V89.988C1040.45 90.3293 1040.27 90.5 1039.93 90.5H998.589ZM19.12 231.5C18.6933 231.5 18.48 231.287 18.48 230.86L18.608 142.924C18.608 142.583 18.7787 142.412 19.12 142.412H33.456C33.7973 142.412 33.968 142.583 33.968 142.924L34.096 230.86C34.096 231.287 33.9253 231.5 33.584 231.5H19.12ZM72.235 232.78C67.627 232.78 63.403 231.628 59.563 229.324C55.8083 226.935 52.779 223.82 50.475 219.98C48.2563 216.055 47.147 211.745 47.147 207.052V201.164C47.147 200.737 47.3603 200.524 47.787 200.524H62.123C62.4643 200.524 62.635 200.737 62.635 201.164V207.052C62.635 209.868 63.5736 212.3 65.451 214.348C67.3283 216.311 69.5896 217.292 72.235 217.292C74.8803 217.292 77.1416 216.268 79.019 214.22C80.8963 212.172 81.835 209.783 81.835 207.052C81.835 203.895 79.787 201.164 75.691 198.86C74.3256 198.092 72.1923 196.897 69.291 195.276C66.3896 193.655 63.659 192.119 61.099 190.668C56.4056 187.937 52.907 184.524 50.603 180.428C48.3843 176.247 47.275 171.553 47.275 166.348C47.275 161.569 48.427 157.303 50.731 153.548C53.035 149.708 56.0643 146.679 59.819 144.46C63.659 142.241 67.7976 141.132 72.235 141.132C76.7576 141.132 80.8963 142.284 84.651 144.588C88.491 146.807 91.5203 149.836 93.739 153.676C96.043 157.431 97.195 161.655 97.195 166.348V176.844C97.195 177.185 97.0243 177.356 96.683 177.356H82.347C82.0056 177.356 81.835 177.185 81.835 176.844L81.707 166.348C81.707 163.361 80.7683 160.929 78.891 159.052C77.0136 157.175 74.795 156.236 72.235 156.236C69.5896 156.236 67.3283 157.26 65.451 159.308C63.5736 161.271 62.635 163.617 62.635 166.348C62.635 169.164 63.2323 171.511 64.427 173.388C65.6216 175.265 67.7976 177.057 70.955 178.764C71.3816 179.02 72.1923 179.489 73.387 180.172C74.667 180.769 76.0323 181.495 77.483 182.348C78.9336 183.116 80.2136 183.799 81.323 184.396C82.5176 184.993 83.243 185.377 83.499 185.548C87.7656 187.937 91.1363 190.881 93.611 194.38C96.0856 197.793 97.323 202.017 97.323 207.052C97.323 211.916 96.171 216.311 93.867 220.236C91.6483 224.076 88.619 227.148 84.779 229.452C81.0243 231.671 76.843 232.78 72.235 232.78ZM134.113 230.86L149.985 142.924C150.07 142.583 150.284 142.412 150.625 142.412H169.185C169.526 142.412 169.74 142.583 169.825 142.924L185.057 230.86C185.142 231.287 184.972 231.5 184.545 231.5H170.337C169.996 231.5 169.782 231.287 169.697 230.86L168.289 221.516H150.881L149.473 230.86C149.388 231.287 149.174 231.5 148.833 231.5H134.625C134.284 231.5 134.113 231.287 134.113 230.86ZM153.441 207.82H165.729L160.481 171.852L159.713 167.116L159.201 171.852L153.441 207.82ZM247.004 232.78C242.396 232.78 238.215 231.628 234.46 229.324C230.705 227.02 227.676 223.948 225.372 220.108C223.153 216.183 222.044 211.831 222.044 207.052V166.476C222.044 161.868 223.153 157.644 225.372 153.804C227.676 149.879 230.705 146.764 234.46 144.46C238.3 142.156 242.481 141.004 247.004 141.004C251.697 141.004 255.921 142.156 259.676 144.46C263.516 146.679 266.545 149.708 268.764 153.548C270.983 157.388 272.092 161.697 272.092 166.476V172.364C272.092 172.705 271.879 172.876 271.452 172.876H257.116C256.775 172.876 256.604 172.705 256.604 172.364V167.5C256.604 164.257 255.665 161.569 253.788 159.436C251.996 157.303 249.735 156.236 247.004 156.236C244.529 156.236 242.311 157.26 240.348 159.308C238.471 161.356 237.532 163.745 237.532 166.476V207.052C237.532 209.868 238.471 212.3 240.348 214.348C242.225 216.311 244.444 217.292 247.004 217.292C249.735 217.292 251.996 216.311 253.788 214.348C255.665 212.385 256.604 209.953 256.604 207.052V200.78H247.644C247.217 200.78 247.004 200.567 247.004 200.14V185.804C247.004 185.377 247.217 185.164 247.644 185.164H271.58C271.921 185.164 272.092 185.377 272.092 185.804V207.052C272.092 211.831 270.94 216.183 268.636 220.108C266.417 223.948 263.431 227.02 259.676 229.324C255.921 231.628 251.697 232.78 247.004 232.78ZM279.723 230.86L295.595 142.924C295.68 142.583 295.894 142.412 296.235 142.412H314.795C315.136 142.412 315.35 142.583 315.435 142.924L330.667 230.86C330.752 231.287 330.582 231.5 330.155 231.5H315.947C315.606 231.5 315.392 231.287 315.307 230.86L313.899 221.516H296.491L295.083 230.86C294.998 231.287 294.784 231.5 294.443 231.5H280.235C279.894 231.5 279.723 231.287 279.723 230.86ZM299.051 207.82H311.339L306.091 171.852L305.323 167.116L304.811 171.852L299.051 207.82ZM344.332 231.5C343.991 231.5 343.82 231.287 343.82 230.86L344.076 142.924C344.076 142.583 344.247 142.412 344.588 142.412H360.204C360.545 142.412 360.844 142.583 361.1 142.924L372.748 159.82L384.396 142.924C384.652 142.583 384.951 142.412 385.292 142.412H401.036C401.377 142.412 401.548 142.583 401.548 142.924L401.804 230.86C401.804 231.287 401.633 231.5 401.292 231.5H386.828C386.487 231.5 386.316 231.287 386.316 230.86L386.188 165.58L372.748 185.036L359.436 165.58L359.308 230.86C359.308 231.287 359.137 231.5 358.796 231.5H344.332ZM418.202 231.5C417.861 231.5 417.69 231.287 417.69 230.86L417.818 142.924C417.818 142.583 417.989 142.412 418.33 142.412H459.418C459.759 142.412 459.93 142.625 459.93 143.052V157.388C459.93 157.729 459.759 157.9 459.418 157.9H433.178V177.868H459.418C459.759 177.868 459.93 178.039 459.93 178.38L460.058 192.844C460.058 193.185 459.887 193.356 459.546 193.356H433.178V215.756H459.546C459.887 215.756 460.058 215.969 460.058 216.396V230.988C460.058 231.329 459.887 231.5 459.546 231.5H418.202ZM501.32 231.5C500.893 231.5 500.68 231.287 500.68 230.86L500.936 142.924C500.936 142.583 501.107 142.412 501.448 142.412H542.408C542.835 142.412 543.048 142.583 543.048 142.924V157.388C543.048 157.729 542.877 157.9 542.536 157.9H516.296V177.74H542.536C542.877 177.74 543.048 177.953 543.048 178.38L543.176 192.844C543.176 193.185 542.963 193.356 542.536 193.356H516.296V230.86C516.296 231.287 516.083 231.5 515.656 231.5H501.32ZM578.73 232.78C574.122 232.78 569.898 231.628 566.058 229.324C562.303 226.935 559.274 223.82 556.97 219.98C554.666 216.055 553.514 211.745 553.514 207.052L553.642 166.476C553.642 161.783 554.751 157.516 556.97 153.676C559.274 149.836 562.346 146.764 566.186 144.46C570.026 142.156 574.207 141.004 578.73 141.004C583.338 141.004 587.519 142.156 591.274 144.46C595.029 146.764 598.015 149.836 600.234 153.676C602.538 157.516 603.69 161.783 603.69 166.476L603.818 207.052C603.818 211.745 602.666 216.055 600.362 219.98C598.143 223.82 595.114 226.935 591.274 229.324C587.519 231.628 583.338 232.78 578.73 232.78ZM578.73 217.292C581.29 217.292 583.509 216.268 585.386 214.22C587.349 212.087 588.33 209.697 588.33 207.052L588.202 166.476C588.202 163.66 587.306 161.271 585.514 159.308C583.722 157.345 581.461 156.364 578.73 156.364C576.085 156.364 573.823 157.345 571.946 159.308C570.069 161.185 569.13 163.575 569.13 166.476V207.052C569.13 209.868 570.069 212.3 571.946 214.348C573.823 216.311 576.085 217.292 578.73 217.292ZM619.182 231.5C618.841 231.5 618.67 231.287 618.67 230.86L618.926 142.924C618.926 142.583 619.097 142.412 619.438 142.412H645.294C649.902 142.412 654.126 143.564 657.966 145.868C661.891 148.087 665.006 151.116 667.31 154.956C669.614 158.711 670.766 162.977 670.766 167.756C670.766 170.913 670.297 173.772 669.358 176.332C668.419 178.807 667.31 180.94 666.03 182.732C664.75 184.439 663.598 185.719 662.574 186.572C667.182 191.692 669.486 197.708 669.486 204.62L669.614 230.86C669.614 231.287 669.401 231.5 668.974 231.5H654.51C654.169 231.5 653.998 231.372 653.998 231.116V204.62C653.998 201.548 652.889 198.903 650.67 196.684C648.537 194.38 645.891 193.228 642.734 193.228H634.286L634.158 230.86C634.158 231.287 633.987 231.5 633.646 231.5H619.182ZM634.286 177.868H645.294C647.939 177.868 650.286 176.887 652.334 174.924C654.382 172.961 655.406 170.572 655.406 167.756C655.406 165.025 654.382 162.679 652.334 160.716C650.371 158.753 648.025 157.772 645.294 157.772H634.286V177.868ZM710.812 231.5C710.129 231.5 709.788 231.201 709.788 230.604L709.66 143.436C709.66 142.753 710.001 142.412 710.684 142.412H722.204L743.836 192.844L743.196 143.436C743.196 142.753 743.58 142.412 744.348 142.412H757.02C757.532 142.412 757.788 142.753 757.788 143.436L757.916 230.732C757.916 231.244 757.703 231.5 757.276 231.5H746.012L723.868 184.396L724.764 230.476C724.764 231.159 724.38 231.5 723.612 231.5H710.812ZM797.835 232.78C793.227 232.78 789.003 231.628 785.163 229.324C781.408 226.935 778.379 223.82 776.075 219.98C773.771 216.055 772.619 211.745 772.619 207.052L772.747 166.476C772.747 161.783 773.856 157.516 776.075 153.676C778.379 149.836 781.451 146.764 785.291 144.46C789.131 142.156 793.312 141.004 797.835 141.004C802.443 141.004 806.624 142.156 810.379 144.46C814.134 146.764 817.12 149.836 819.339 153.676C821.643 157.516 822.795 161.783 822.795 166.476L822.923 207.052C822.923 211.745 821.771 216.055 819.467 219.98C817.248 223.82 814.219 226.935 810.379 229.324C806.624 231.628 802.443 232.78 797.835 232.78ZM797.835 217.292C800.395 217.292 802.614 216.268 804.491 214.22C806.454 212.087 807.435 209.697 807.435 207.052L807.307 166.476C807.307 163.66 806.411 161.271 804.619 159.308C802.827 157.345 800.566 156.364 797.835 156.364C795.19 156.364 792.928 157.345 791.051 159.308C789.174 161.185 788.235 163.575 788.235 166.476V207.052C788.235 209.868 789.174 212.3 791.051 214.348C792.928 216.311 795.19 217.292 797.835 217.292ZM885.575 232.78C880.967 232.78 876.743 231.628 872.903 229.324C869.148 226.935 866.119 223.82 863.815 219.98C861.511 216.055 860.359 211.745 860.359 207.052L860.487 166.476C860.487 161.783 861.596 157.516 863.815 153.676C866.119 149.836 869.191 146.764 873.031 144.46C876.871 142.156 881.052 141.004 885.575 141.004C890.183 141.004 894.364 142.156 898.119 144.46C901.874 146.764 904.86 149.836 907.079 153.676C909.383 157.516 910.535 161.783 910.535 166.476L910.663 207.052C910.663 211.745 909.511 216.055 907.207 219.98C904.988 223.82 901.959 226.935 898.119 229.324C894.364 231.628 890.183 232.78 885.575 232.78ZM885.575 217.292C888.135 217.292 890.354 216.268 892.231 214.22C894.194 212.087 895.175 209.697 895.175 207.052L895.047 166.476C895.047 163.66 894.151 161.271 892.359 159.308C890.567 157.345 888.306 156.364 885.575 156.364C882.93 156.364 880.668 157.345 878.791 159.308C876.914 161.185 875.975 163.575 875.975 166.476V207.052C875.975 209.868 876.914 212.3 878.791 214.348C880.668 216.311 882.93 217.292 885.575 217.292ZM926.667 231.5C925.984 231.5 925.643 231.201 925.643 230.604L925.515 143.436C925.515 142.753 925.856 142.412 926.539 142.412H938.059L959.691 192.844L959.051 143.436C959.051 142.753 959.435 142.412 960.203 142.412H972.875C973.387 142.412 973.643 142.753 973.643 143.436L973.771 230.732C973.771 231.244 973.558 231.5 973.131 231.5H961.867L939.723 184.396L940.619 230.476C940.619 231.159 940.235 231.5 939.467 231.5H926.667ZM990.522 231.5C990.181 231.5 990.01 231.287 990.01 230.86L990.138 142.924C990.138 142.583 990.309 142.412 990.65 142.412H1031.74C1032.08 142.412 1032.25 142.625 1032.25 143.052V157.388C1032.25 157.729 1032.08 157.9 1031.74 157.9H1005.5V177.868H1031.74C1032.08 177.868 1032.25 178.039 1032.25 178.38L1032.38 192.844C1032.38 193.185 1032.21 193.356 1031.87 193.356H1005.5V215.756H1031.87C1032.21 215.756 1032.38 215.969 1032.38 216.396V230.988C1032.38 231.329 1032.21 231.5 1031.87 231.5H990.522Z" fill="black"/>
</svg>
